<svg width="40" height="40" viewBox="0 0 40 40" fill="none" xmlns="http://www.w3.org/2000/svg">
<path d="M17.6682 0.128414C13.1219 0.725411 9.16872 2.6159 6.00615 5.7157C3.27691 8.38687 1.44474 11.6091 0.52486 15.3595C0.129538 16.9745 -0.00730431 18.2144 0.000298047 20.0283C0.0079004 23.3194 0.6541 26.0289 2.13656 29.0139C3.61902 31.9836 5.96055 34.6394 8.81904 36.5682C12.6354 39.1399 17.4781 40.3798 21.8494 39.8977C26.8671 39.3389 30.8735 37.4484 34.2489 34.0272C38.8103 29.3966 40.7261 23.4113 39.753 16.7372C39.1904 12.8185 36.9477 8.50167 34.036 5.70804C31.284 3.07513 27.977 1.28414 24.3583 0.472835C22.2828 0.0136068 19.6144 -0.131816 17.6682 0.128414ZM22.4653 2.65417C27.9466 3.45782 32.7892 7.00154 35.298 12.0454C36.0583 13.5761 36.6056 15.3059 36.8793 17.005C37.0694 18.1837 37.0694 21.3448 36.8793 22.4393C36.3699 25.3324 35.336 27.7817 33.6027 30.1313C33.3138 30.5293 32.5612 31.3713 31.9378 31.9989L30.8051 33.1317L30.8507 33.721L30.8963 34.3027L30.6758 33.4608C30.4173 32.4581 30.1892 31.8994 29.8547 31.4555C29.7179 31.2717 29.6039 31.0805 29.6039 31.0269C29.6115 30.9809 29.8015 30.7973 30.0372 30.6289C30.4629 30.3227 31.0483 29.7027 31.3676 29.2129C31.4816 29.0521 31.6413 28.9221 31.801 28.8761C32.1811 28.7689 32.6144 28.3174 32.7132 27.927C32.8197 27.552 32.7816 27.376 32.5231 26.9857L32.3331 26.7101L32.5003 25.9524C32.6676 25.2023 32.6676 25.187 32.5383 24.0083C32.4699 23.3577 32.4167 22.7301 32.4167 22.6229C32.4167 22.3551 31.8314 21.1764 31.3676 20.5258C30.5922 19.4237 30.3033 19.1634 29.1781 18.6124C27.8705 17.9618 27.3916 17.8546 26.0687 17.9082C24.9132 17.9541 23.9401 18.1761 23.0506 18.6047C22.1535 19.0333 21.1348 20.0513 20.1542 21.5132C19.8196 22.003 19.7968 22.0642 19.7968 22.5388C19.7968 22.9061 19.7208 23.2659 19.5231 23.8858C19.1886 24.9344 19.2038 25.1793 19.6828 25.9983C19.8729 26.3197 20.0249 26.6259 20.0249 26.6641C20.0249 26.7101 19.9261 26.8555 19.7968 26.9933C19.3939 27.4296 19.4015 28.1031 19.8196 28.5547C20.0553 28.8073 20.6331 29.0445 20.7775 28.945C20.8155 28.9221 20.7851 28.7307 20.7015 28.5241C20.4734 27.9194 20.5342 27.8965 20.8155 28.4858C21.3705 29.6645 22.1231 30.4222 23.3319 31.0192C24.2442 31.4631 25.0272 31.6621 26.1448 31.7157C26.6466 31.7386 26.9887 31.7845 26.9051 31.8152C26.4489 31.9759 24.3507 31.6774 23.3851 31.3101L22.8834 31.1187L22.7542 31.2947C22.4729 31.6621 21.9179 32.8791 21.781 33.4225C21.705 33.7363 21.5986 34.3716 21.5454 34.8308C21.3933 36.2621 21.3325 36.3921 21.1729 35.5502C20.9068 34.1573 19.1202 27.5597 18.8998 27.1617C18.8694 27.1005 18.3904 26.9397 17.8354 26.802C17.2805 26.6565 16.6722 26.4881 16.4822 26.4116C16.2998 26.3427 16.1249 26.3045 16.1021 26.3274C16.0793 26.3504 16.2085 26.5723 16.391 26.8173C16.5734 27.0621 16.8319 27.4372 16.9687 27.6439C17.3261 28.2179 18.1547 30.0089 18.398 30.7207C18.6641 31.4785 18.6413 31.532 17.843 32.2132C17.539 32.4734 17.2881 32.7413 17.2881 32.8102C17.2881 32.8714 17.6378 33.2541 18.0635 33.6521C18.8009 34.3486 18.8314 34.3945 18.7705 34.6089L18.7021 34.8385L18.6717 34.6012C18.6565 34.4175 18.474 34.2109 17.8582 33.6215C17.4173 33.2158 17.06 32.8332 17.06 32.7719C17.06 32.7184 17.3337 32.4352 17.6606 32.1443C18.4968 31.4249 18.5044 31.3789 18.1623 30.4987C17.5846 29.0216 16.3454 26.7407 15.8892 26.3121C15.7448 26.1743 15.6915 26.0442 15.6915 25.8376C15.6915 25.5237 15.76 25.4472 16.1477 25.3171C16.543 25.187 16.9307 24.8885 17.1968 24.5134C17.4097 24.2149 17.5009 24.1613 18.0863 23.9777C18.4436 23.8629 18.7325 23.7404 18.7325 23.7098C18.7325 23.6715 18.5957 23.4725 18.4284 23.2735C18.1015 22.8755 18.0406 22.5924 18.2611 22.5235C18.3296 22.5005 18.5957 22.4622 18.8466 22.4316C19.0975 22.4086 19.3254 22.3704 19.3559 22.3474C19.3863 22.3321 19.3102 22.0413 19.1886 21.7045C19.0594 21.3677 18.9606 21.0463 18.9606 21.0004C18.9606 20.9468 19.1582 20.8473 19.4015 20.7631C19.9413 20.587 20.8611 20.1278 20.8611 20.036C20.8611 19.9977 20.5798 19.814 20.2454 19.6303C19.5839 19.2782 18.915 18.7425 19.0138 18.6506C19.0442 18.62 19.3178 18.5129 19.6067 18.421C20.3366 18.1761 21.112 17.8164 21.7202 17.426C22.0015 17.25 22.2296 17.0893 22.2144 17.0816C22.1839 17.0586 20.1238 16.1708 19.9261 16.1019C19.8348 16.0637 19.812 16.0177 19.85 15.9489C19.8805 15.8876 20.3822 15.3977 20.96 14.862C21.5302 14.3186 22.0015 13.8517 22.0015 13.8211C22.0015 13.7598 21.5302 13.6757 20.139 13.4766C19.6372 13.4002 19.1962 13.3236 19.1658 13.293C19.1278 13.2624 19.4775 12.5888 19.9413 11.8005C20.6939 10.507 20.8383 10.2314 20.7623 10.2314C20.7471 10.2314 20.1237 10.4534 19.3787 10.729C18.2915 11.127 17.995 11.2035 17.919 11.127C17.7518 10.9586 17.5922 9.69567 17.5922 8.56287V7.46842L16.9763 7.79753C16.2542 8.18791 15.2886 8.94559 14.8401 9.47375C14.6728 9.68039 14.498 9.84879 14.4676 9.84879C14.4295 9.84879 14.1406 9.49671 13.8138 9.06039C13.2512 8.31031 12.3009 7.24646 12.1945 7.24646C12.1641 7.24646 12.1032 7.58323 12.0576 7.98887C11.9208 9.13695 11.5178 10.5376 11.3202 10.5376C11.267 10.5376 10.9021 10.3846 10.5143 10.2008C9.89096 9.90999 8.94064 9.61911 8.59096 9.61911C8.49976 9.61911 8.54536 9.75687 8.76584 10.2085C9.10032 10.8897 9.4044 11.9536 9.3664 12.321L9.3436 12.5658L8.65936 12.6194C6.66756 12.7726 5.73247 12.8644 5.73247 12.9026C5.73247 12.9333 6.06698 13.293 6.47751 13.7139C7.24534 14.4946 7.80792 15.3289 7.7699 15.6198C7.7547 15.7269 7.36698 16.0483 6.56873 16.6071C5.92253 17.0586 5.38276 17.4643 5.36756 17.5025C5.35235 17.5409 5.43598 17.5944 5.55762 17.625C6.37107 17.801 6.72078 17.9159 7.00967 18.0842C7.40499 18.3215 7.81552 18.6736 8.0208 18.9645L8.1728 19.1788L7.32136 20.0283C6.60674 20.7477 6.48511 20.8932 6.57633 20.9774C6.63716 21.0309 7.09329 21.207 7.59505 21.3601C8.0968 21.5132 8.53776 21.6739 8.57576 21.7121C8.61376 21.7505 8.55296 22.1408 8.40848 22.6765C8.27928 23.1741 8.1956 23.6103 8.2184 23.6485C8.25648 23.7174 9.5108 23.6562 9.71608 23.5797C9.90616 23.5108 9.98216 23.6945 10.0354 24.2992C10.0658 24.6513 10.1114 24.9497 10.1418 24.965C10.2026 25.0033 11.0541 24.6359 11.0541 24.5747C11.0541 24.5517 10.9553 24.391 10.8337 24.2149C10.3243 23.4649 9.97456 22.5235 9.70088 21.1381C9.51848 20.2579 9.4348 19.416 9.52608 19.416C9.55649 19.416 9.60968 19.6609 9.64008 19.9594C9.79216 21.6662 10.5752 23.8323 11.2898 24.5517C11.4722 24.7354 11.8676 24.9957 12.2477 25.1717L12.8863 25.4701L12.8634 25.7533L12.8406 26.0365L11.153 26.6029L9.4652 27.1693L9.3132 27.6362C9.22952 27.8965 8.87984 29.0828 8.54536 30.2845C7.92195 32.4657 7.73189 33.0169 7.82312 32.3663C7.86113 32.0448 7.84592 32.0142 7.4582 31.5856C5.03306 28.9527 3.53539 25.8681 2.95001 22.2862C2.72955 20.9774 2.75235 18.1761 2.98803 16.8902C3.64943 13.2777 5.10908 10.331 7.49622 7.81284C11.3886 3.71805 16.8395 1.83521 22.4653 2.65417ZM12.1793 27.3913C11.6319 28.5317 10.6588 31.2641 10.7424 31.4096C10.7804 31.4785 11.1074 31.7922 11.4722 32.1137C11.8447 32.4352 12.1565 32.7337 12.1717 32.7873C12.1945 32.8408 12.0804 33.0092 11.9208 33.1699C11.7535 33.346 11.6927 33.3842 11.7687 33.2694C12.0652 32.8025 12.088 32.8637 11.3202 32.152C10.8032 31.6697 10.598 31.4325 10.598 31.3024C10.598 30.9044 12.1032 27.0698 12.2629 27.0698C12.3009 27.0698 12.2629 27.2153 12.1793 27.3913Z" fill="#202329"/>
</svg>
