<svg width="348" height="347" viewBox="0 0 348 347" fill="none" xmlns="http://www.w3.org/2000/svg">
<g clip-path="url(#clip0)">
<path d="M84.9627 9.38551C83.2253 23.8991 78.1096 41.6057 75.6001 41.6057C74.9244 41.6057 70.2913 39.6706 65.3686 37.3484C57.4538 33.6715 45.3884 29.9948 40.9484 29.9948C39.79 29.9948 40.3692 31.7365 43.1684 37.4452C47.4154 46.0566 51.2762 59.5058 50.7936 64.1501L50.5041 67.2464L41.8171 67.9238C16.5281 69.8588 4.65573 71.02 4.65573 71.5038C4.65573 71.8908 8.90274 76.4384 14.115 81.76C23.8638 91.6293 31.0065 102.176 30.5238 105.853C30.3308 107.207 25.4081 111.271 15.2732 118.334C7.06881 124.043 0.215685 129.171 0.0226391 129.655C-0.170407 130.139 0.891345 130.816 2.43571 131.203C12.7637 133.429 17.2037 134.88 20.8716 137.009C25.8907 140.008 31.103 144.459 33.7091 148.136L35.6396 150.844L24.829 161.585C15.7558 170.68 14.2115 172.519 15.3698 173.583C16.142 174.26 21.9333 176.485 28.3038 178.421C34.6743 180.356 40.2727 182.388 40.7553 182.872C41.2379 183.355 40.4657 188.29 38.6318 195.063C36.9909 201.352 35.9292 206.867 36.2187 207.351C36.7013 208.222 52.6276 207.448 55.2337 206.481C57.6468 205.609 58.612 207.931 59.2877 215.576C59.6738 220.027 60.2529 223.8 60.639 223.993C61.4111 224.478 72.2218 219.833 72.2218 219.059C72.2218 218.769 70.967 216.737 69.4226 214.512C64.9826 208.028 61.9903 201.352 59.1911 192.064C57.8398 187.226 55.8128 180.743 54.8477 177.55C53.7859 174.357 52.7241 170.003 52.5311 167.874C51.1798 157.618 50.9867 153.845 51.952 153.845C52.4346 153.845 52.9172 155.489 52.9172 157.424C53.0137 161.779 55.1372 173.389 56.5851 177.55C57.1642 179.098 58.9982 184.807 60.639 190.128C64.5964 202.61 70.2913 213.834 75.2139 218.769C77.5305 221.091 82.5497 224.381 87.3758 226.606L95.4837 230.379L95.1946 233.959L94.9046 237.54L73.38 244.7L51.8554 251.956L49.0562 261.148C47.5118 266.276 43.1684 281.468 39.3074 295.014C35.4466 308.463 31.7787 320.073 31.1995 320.654C30.6204 321.234 28.883 326.46 27.4351 332.361C25.9873 338.167 24.636 343.779 24.3464 344.65C23.8638 346.295 27.7247 346.392 96.2561 346.392C164.884 346.392 168.745 346.295 168.745 344.65C168.745 343.779 164.208 338.748 158.61 333.523C153.011 328.298 148.474 323.46 148.474 322.686C148.474 322.009 151.95 318.429 156.1 314.752C166.718 305.657 166.814 305.077 162.471 293.949C155.135 275.275 139.402 246.441 133.61 241.023C131.776 239.281 131.1 237.636 131.1 235.024C131.1 231.057 131.969 230.09 136.892 228.444C141.911 226.8 146.834 223.026 150.213 218.285C152.915 214.512 154.073 213.834 161.505 211.512C166.042 210.061 169.71 208.512 169.71 208.125C169.71 207.642 167.973 205.126 165.849 202.61C161.698 197.579 160.926 193.999 163.726 193.128C164.594 192.838 167.973 192.353 171.158 191.967C174.342 191.677 177.239 191.192 177.625 190.903C178.494 190.515 173.571 176.776 172.413 176.292C172.026 176.099 171.64 175.228 171.64 174.26C171.64 173.099 172.992 172.228 176.466 171.357C182.451 169.809 196.736 162.94 196.736 161.682C196.736 161.101 194.902 159.746 192.682 158.585C180.328 152.296 170.289 145.04 172.316 143.879C172.702 143.685 176.273 142.524 180.134 141.363C183.995 140.202 190.269 137.783 194.13 136.041C200.79 133.041 214.497 124.914 213.917 124.333C213.531 124.043 187.373 112.819 184.863 111.948C183.705 111.465 183.416 110.884 183.899 110.013C184.284 109.239 190.655 103.047 197.991 96.274C205.231 89.4039 211.215 83.5017 211.215 83.1146C211.215 82.3406 205.23 81.2763 187.566 78.7606C181.196 77.793 175.597 76.8254 175.212 76.4384C174.729 76.0513 179.169 67.5367 185.057 57.5707C194.613 41.2187 196.447 37.7354 195.481 37.7354C195.289 37.7354 187.373 40.5414 177.915 44.0246C164.111 49.056 160.347 50.0236 159.382 49.056C157.258 46.9274 155.231 30.9624 155.231 16.6422V2.80597L147.413 6.96654C138.243 11.9012 125.985 21.4801 120.29 28.1565C118.166 30.7688 115.947 32.8975 115.561 32.8975C115.078 32.8975 111.41 28.4467 107.259 22.9315C100.117 13.4493 88.0515 0 86.7001 0C86.314 0 85.5419 4.25732 84.9627 9.38551ZM87.6654 251.859C84.094 254.666 65.8513 302.948 67.2991 305.463C67.7817 306.334 71.9322 310.301 76.5653 314.365C81.2949 318.429 85.2524 322.202 85.4454 322.783C85.6384 323.363 84.4801 325.492 82.8393 327.524C81.2949 329.556 79.9436 330.62 79.9436 329.943C79.9436 329.362 80.8122 327.621 81.9706 326.266L83.9975 323.654L74.7313 314.946C68.2643 308.849 65.4652 305.56 65.4652 304.012C65.4652 300.915 76.4688 271.308 83.2253 256.117C84.8662 252.44 86.2176 250.601 87.3758 250.601C88.9202 250.698 88.9202 250.795 87.6654 251.859Z" fill="#202329"/>
<path d="M249.246 135.945C222.123 140.879 207.162 151.619 187.762 180.356C183.515 186.548 183.225 187.323 183.225 193.321C183.225 197.965 182.26 202.513 179.75 210.35C175.503 223.606 175.696 226.703 181.777 237.055C184.19 241.12 186.12 244.99 186.12 245.474C186.12 246.054 184.865 247.893 183.225 249.634C178.109 255.149 178.205 263.664 183.515 269.373C186.603 272.566 193.842 275.565 195.773 274.307C196.255 274.017 195.58 271.791 194.325 269.276C192.973 266.857 191.912 264.148 192.009 263.277C192.009 262.31 192.491 262.6 193.07 264.148C194.711 267.728 202.336 279.532 206.101 284.176C213.533 293.465 229.556 302.851 244.517 306.818C249.054 307.979 257.065 309.043 263.822 309.334C270.192 309.624 274.535 310.204 273.474 310.592C267.682 312.623 241.042 308.849 228.783 304.205L222.413 301.787L220.772 304.012C214.691 312.042 207.741 330.33 206.004 342.715L205.522 346.392H265.366C321.929 346.392 325.21 346.295 324.727 344.65C324.438 343.779 322.893 337.973 321.349 331.781C317.971 318.429 315.268 311.753 310.924 306.044C309.187 303.722 307.74 301.303 307.74 300.626C307.835 300.045 310.248 297.722 313.241 295.594C318.646 291.724 326.079 283.887 330.132 277.694C331.484 275.662 333.608 274.017 335.538 273.437C337.179 272.952 340.268 270.921 342.391 268.986C349.051 262.6 349.727 253.891 343.839 248.763C341.811 247.022 341.522 246.151 342.101 243.055C342.487 241.12 343.066 239.281 343.453 238.991C343.839 238.701 344.708 235.894 345.384 232.701C346.348 228.057 346.348 224.478 345.384 214.511C344.708 207.739 343.742 202.223 343.26 202.223C342.777 202.223 342.487 199.514 342.584 196.127C342.777 190.806 342.295 189.161 338.819 182.388C334.187 173.195 327.334 163.133 320.384 155.586C316.137 150.941 313.337 149.103 302.43 143.685C294.709 139.911 286.793 136.718 282.933 135.945C274.922 134.202 258.512 134.202 249.246 135.945Z" fill="#202329"/>
<path d="M135.928 241.506C135.928 241.797 137.762 244.506 140.078 247.505C142.395 250.505 145.58 255.246 147.317 257.859C151.854 265.115 162.375 287.756 165.464 296.755C168.842 306.334 168.553 307.011 158.417 315.622C154.556 318.912 151.372 322.396 151.372 323.17C151.372 324.041 155.714 328.685 161.024 333.716C166.815 339.038 170.676 343.392 170.676 344.553C170.676 346.295 171.448 346.392 184.189 346.392C194.324 346.392 197.703 346.101 197.703 345.134C197.703 341.07 174.054 255.827 171.834 251.763C171.448 250.989 165.271 248.957 158.128 247.118C150.985 245.377 143.553 243.248 141.526 242.378C137.569 240.829 135.928 240.539 135.928 241.506Z" fill="#202329"/>
</g>
<defs>
<clipPath id="clip0">
<rect width="348" height="347" fill="white"/>
</clipPath>
</defs>
</svg>
